<svg width="96" height="96" viewBox="0 0 96 96" fill="none" xmlns="http://www.w3.org/2000/svg">
  <rect width="96" height="96" rx="28" fill="#081327"/>
  <rect x="7" y="7" width="82" height="82" rx="24" stroke="url(#paint0_linear)" stroke-opacity="0.5"/>
  <path d="M22 34C22 27.3726 27.3726 22 34 22H52C58.6274 22 64 27.3726 64 34V38H50V35C50 32.7909 48.2091 31 46 31H36C33.7909 31 32 32.7909 32 35V61C32 63.2091 33.7909 65 36 65H46C48.2091 65 50 63.2091 50 61V57H41V48H74V61C74 72.598 64.598 82 53 82H33C21.402 82 12 72.598 12 61V34H22Z" fill="url(#paint1_linear)"/>
  <path d="M60 22H64C75.598 22 85 31.402 85 43V61H75V43C75 36.3726 69.6274 31 63 31H60V22Z" fill="url(#paint2_linear)"/>
  <defs>
    <linearGradient id="paint0_linear" x1="15" y1="12" x2="84" y2="83" gradientUnits="userSpaceOnUse">
      <stop stop-color="#7CF8D2"/>
      <stop offset="0.54" stop-color="#27E4F2"/>
      <stop offset="1" stop-color="#3AA6FF"/>
    </linearGradient>
    <linearGradient id="paint1_linear" x1="18" y1="22" x2="79" y2="80" gradientUnits="userSpaceOnUse">
      <stop stop-color="#7CF8D2"/>
      <stop offset="0.56" stop-color="#27E4F2"/>
      <stop offset="1" stop-color="#3AA6FF"/>
    </linearGradient>
    <linearGradient id="paint2_linear" x1="60" y1="22" x2="85" y2="61" gradientUnits="userSpaceOnUse">
      <stop stop-color="#7CF8D2"/>
      <stop offset="0.56" stop-color="#27E4F2"/>
      <stop offset="1" stop-color="#3AA6FF"/>
    </linearGradient>
  </defs>
</svg>
